<svg width="48" height="48" viewBox="0 0 48 48" fill="none" xmlns="http://www.w3.org/2000/svg">
<path fill-rule="evenodd" clip-rule="evenodd" d="M23.9988 0C10.7453 0 0 11.018 0 24.609C0 35.4812 6.87508 44.7047 16.413 47.9567C17.6141 48.1845 18.0511 47.4267 18.0511 46.7724C18.0511 46.1894 18.0302 44.6429 18.0197 42.5872C11.3434 44.0756 9.93475 39.2878 9.93475 39.2878C8.84308 36.4453 7.26954 35.6894 7.26954 35.6894C5.09046 34.1638 7.43508 34.1934 7.43508 34.1934C9.84368 34.3682 11.1114 36.7286 11.1114 36.7286C13.2517 40.4892 16.7293 39.4008 18.096 38.7749C18.3133 37.1817 18.9348 36.0996 19.6197 35.4831C14.2911 34.8622 8.68862 32.751 8.68862 23.3218C8.68862 20.6345 9.62343 18.4375 11.1581 16.7169C10.9127 16.0973 10.0874 13.5955 11.3939 10.2059C11.3939 10.2059 13.4086 9.54465 17.9945 12.7304C19.9077 12.1821 21.9613 11.9083 24.0025 11.9001C26.0406 11.9089 28.0947 12.1821 30.0105 12.7304C34.5933 9.54465 36.605 10.2059 36.605 10.2059C37.9144 13.5955 37.0899 16.0973 36.8437 16.7169C38.3821 18.4375 39.3102 20.6345 39.3102 23.3218C39.3102 32.7731 33.6997 34.8553 28.3532 35.4623C29.2136 36.2226 29.9816 37.7275 29.9816 40.0236C29.9816 43.3115 29.9526 45.9647 29.9526 46.7718C29.9526 47.4311 30.384 48.1977 31.6025 47.9536C41.1298 44.6946 48 35.4781 48 24.609C48 11.018 37.2548 0 23.9988 0Z" fill="#838282"/>
</svg>
