<svg width="48" height="48" viewBox="0 0 48 48" fill="none" xmlns="http://www.w3.org/2000/svg">
<path d="M32 24C32 21.7917 31.2187 19.9062 29.6563 18.3438C28.0937 16.7812 26.2083 16 24 16C21.7917 16 19.9062 16.7812 18.3438 18.3438C16.7812 19.9062 16 21.7917 16 24C16 26.2083 16.7812 28.0938 18.3438 29.6562C19.9062 31.2188 21.7917 32 24 32C26.2083 32 28.0937 31.2188 29.6563 29.6562C31.2187 28.0938 32 26.2083 32 24ZM36.3125 24C36.3125 27.4167 35.1145 30.3229 32.7187 32.7188C30.3229 35.1146 27.4166 36.3125 24 36.3125C20.5833 36.3125 17.6771 35.1146 15.2813 32.7188C12.8854 30.3229 11.6875 27.4167 11.6875 24C11.6875 20.5833 12.8854 17.6771 15.2813 15.2812C17.6771 12.8854 20.5833 11.6875 24 11.6875C27.4166 11.6875 30.3229 12.8854 32.7187 15.2812C35.1145 17.6771 36.3125 20.5833 36.3125 24ZM39.6874 11.1875C39.6874 11.9792 39.4062 12.6562 38.8437 13.2188C38.2812 13.7812 37.6042 14.0625 36.8124 14.0625C36.0208 14.0625 35.3437 13.7812 34.7812 13.2188C34.2188 12.6562 33.9374 11.9792 33.9374 11.1875C33.9374 10.3958 34.2188 9.71875 34.7812 9.15625C35.3437 8.59375 36.0208 8.3125 36.8124 8.3125C37.6042 8.3125 38.2812 8.59375 38.8437 9.15625C39.4062 9.71875 39.6874 10.3958 39.6874 11.1875ZM24 4.3125C23.8541 4.3125 23.0573 4.30729 21.6093 4.29688C20.1615 4.28646 19.0625 4.28646 18.3124 4.29688C17.5625 4.30729 16.5573 4.33854 15.2969 4.39062C14.0364 4.44271 12.9635 4.54688 12.0781 4.70312C11.1927 4.85938 10.4479 5.05208 9.84371 5.28125C8.80208 5.69792 7.88541 6.30208 7.09375 7.09375C6.30208 7.88542 5.69792 8.80208 5.28125 9.84375C5.05208 10.4479 4.85937 11.1927 4.70313 12.0781C4.54687 12.9635 4.4427 14.0365 4.39062 15.2969C4.33854 16.5573 4.30729 17.5625 4.29687 18.3125C4.28646 19.0625 4.28646 20.1615 4.29687 21.6094C4.30729 23.0573 4.3125 23.8542 4.3125 24C4.3125 24.1458 4.30729 24.9427 4.29687 26.3906C4.28646 27.8385 4.28646 28.9375 4.29687 29.6875C4.30729 30.4375 4.33854 31.4427 4.39062 32.7031C4.4427 33.9635 4.54687 35.0365 4.70313 35.9219C4.85937 36.8073 5.05208 37.5521 5.28125 38.1562C5.69792 39.1979 6.30208 40.1146 7.09375 40.9062C7.88541 41.6979 8.80208 42.3021 9.84371 42.7188C10.4479 42.9479 11.1927 43.1406 12.0781 43.2969C12.9635 43.4531 14.0364 43.5573 15.2969 43.6094C16.5573 43.6615 17.5625 43.6927 18.3124 43.7031C19.0625 43.7135 20.1615 43.7135 21.6093 43.7031C23.0573 43.6927 23.8541 43.6875 24 43.6875C24.1458 43.6875 24.9427 43.6927 26.3906 43.7031C27.8385 43.7135 28.9375 43.7135 29.6875 43.7031C30.4374 43.6927 31.4427 43.6615 32.7031 43.6094C33.9635 43.5573 35.0364 43.4531 35.9219 43.2969C36.8073 43.1406 37.552 42.9479 38.1562 42.7188C39.1979 42.3021 40.1146 41.6979 40.9062 40.9062C41.6979 40.1146 42.302 39.1979 42.7187 38.1562C42.9479 37.5521 43.1406 36.8073 43.2969 35.9219C43.4531 35.0365 43.5573 33.9635 43.6093 32.7031C43.6614 31.4427 43.6927 30.4375 43.7031 29.6875C43.7136 28.9375 43.7136 27.8385 43.7031 26.3906C43.6927 24.9427 43.6875 24.1458 43.6875 24C43.6875 23.8542 43.6927 23.0573 43.7031 21.6094C43.7136 20.1615 43.7136 19.0625 43.7031 18.3125C43.6927 17.5625 43.6614 16.5573 43.6093 15.2969C43.5573 14.0365 43.4531 12.9635 43.2969 12.0781C43.1406 11.1927 42.9479 10.4479 42.7187 9.84375C42.302 8.80208 41.6979 7.88542 40.9062 7.09375C40.1146 6.30208 39.1979 5.69792 38.1562 5.28125C37.552 5.05208 36.8073 4.85938 35.9219 4.70312C35.0364 4.54688 33.9635 4.44271 32.7031 4.39062C31.4427 4.33854 30.4374 4.30729 29.6875 4.29688C28.9375 4.28646 27.8385 4.28646 26.3906 4.29688C24.9427 4.30729 24.1458 4.3125 24 4.3125ZM48 24C48 28.7708 47.9479 32.0729 47.8437 33.9062C47.6354 38.2396 46.3438 41.5938 43.9687 43.9688C41.5938 46.3438 38.2396 47.6354 33.9062 47.8438C32.0729 47.9479 28.7709 48 24 48C19.2292 48 15.9271 47.9479 14.0937 47.8438C9.76045 47.6354 6.40624 46.3438 4.03125 43.9688C1.65625 41.5938 0.364583 38.2396 0.15625 33.9062C0.0520827 32.0729 0 28.7708 0 24C0 19.2292 0.0520827 15.9271 0.15625 14.0938C0.364583 9.76042 1.65625 6.40625 4.03125 4.03125C6.40624 1.65625 9.76045 0.364583 14.0937 0.15625C15.9271 0.0520833 19.2292 0 24 0C28.7709 0 32.0729 0.0520833 33.9062 0.15625C38.2396 0.364583 41.5938 1.65625 43.9687 4.03125C46.3438 6.40625 47.6354 9.76042 47.8437 14.0938C47.9479 15.9271 48 19.2292 48 24Z" fill="#838282"/>
</svg>
