<svg width="48" height="48" viewBox="0 0 48 48" fill="none" xmlns="http://www.w3.org/2000/svg">
<path d="M48 5.70027C46.1116 6.70037 44.2228 7.32492 42.3352 7.5758C44.4672 6.0008 45.9092 3.77575 46.6606 0.90079C44.7104 2.32553 42.6296 3.30027 40.4165 3.82553C38.4671 1.27553 36.0716 0 33.2284 0C30.5079 0 28.1884 1.18109 26.2687 3.54379C24.3502 5.90636 23.3909 8.7624 23.3909 12.1124C23.3909 13.0122 23.472 13.9375 23.6346 14.8875C19.6142 14.6375 15.8427 13.3937 12.3195 11.1562C8.79668 8.91844 5.80685 5.93709 3.35008 2.21218C2.45666 4.08678 2.00979 6.12466 2.00979 8.32462C2.00979 10.3997 2.40567 12.325 3.19796 14.1C3.98972 15.8748 5.05595 17.3122 6.39614 18.4124C4.81209 18.3372 3.32992 17.8246 1.94941 16.8745V17.0245C1.94941 19.9497 2.69562 22.518 4.18781 24.7312C5.68022 26.9442 7.56361 28.3372 9.83753 28.9125C8.98465 29.1871 8.12152 29.3246 7.24859 29.3246C6.68 29.3246 6.06064 29.2623 5.3907 29.1381C6.0201 31.5627 7.17754 33.5558 8.86261 35.1191C10.548 36.6817 12.4567 37.487 14.5887 37.5383C11.0152 40.9877 6.94423 42.7125 2.37569 42.7125C1.50243 42.7125 0.710788 42.6635 0 42.5629C4.56865 46.1876 9.60412 48 15.1068 48C18.5991 48 21.8784 47.3195 24.9434 45.9566C28.01 44.5947 30.629 42.7691 32.8017 40.4811C34.9739 38.1937 36.8475 35.5624 38.4209 32.5874C39.9943 29.6123 41.1665 26.5063 41.9388 23.2688C42.71 20.0307 43.096 16.7875 43.096 13.5369C43.096 12.8369 43.0858 12.3121 43.0653 11.962C44.9949 10.2377 46.6394 8.14979 48 5.70027Z" fill="#838282"/>
</svg>
